<?xml version="1.0" encoding="utf-8"?>
<!-- Svg Vector Icons : http://www.onlinewebfonts.com/icon -->
<!DOCTYPE svg PUBLIC "-//W3C//DTD SVG 1.1//EN" "http://www.w3.org/Graphics/SVG/1.1/DTD/svg11.dtd">
<svg version="1.1" xmlns="http://www.w3.org/2000/svg" xmlns:xlink="http://www.w3.org/1999/xlink" x="0px" y="0px" viewBox="0 0 1000 1000" enable-background="new 0 0 1000 1000" xml:space="preserve">
<metadata> Svg Vector Icons : http://www.onlinewebfonts.com/icon </metadata>
<g><g transform="translate(0.000000,512.000000) scale(0.100000,-0.100000)"><path style="fill:#8CD54A;" stroke="#000000" stroke-width="4" d="M3619.8,5002.6c-239.4-74.7-384.9-258.5-398.3-505.5c-7.7-114.9-1.9-143.6,51.7-252.8l61.3-122.5l-164.7-273.8L3007,3572.2l-118.7-1.9c-206.8-1.9-400.2-126.4-484.5-312.1l-34.5-78.5l-250.8,5.7l-248.9,5.7l-17.2,59.4c-9.6,32.5-49.8,101.5-88.1,153.2c-227.9,302.5-700.8,270-896.2-63.2c-67-116.8-84.3-329.4-34.5-459.6c42.1-109.1,162.8-243.2,268.1-298.7c109.2-59.4,369.6-59.4,478.7,0c99.6,51.7,227.9,191.5,260.4,279.6l24.9,70.9h245.1c218.3,0,247-3.8,256.6-32.6c46-149.4,158.9-291,283.4-354.2c51.7-26.8,132.1-44,237.4-51.7l158.9-11.5l88.1-164.7l88.1-162.8l-67-95.7c-155.1-220.2-162.8-434.7-23-641.5l65.1-97.7l-237.4-411.7l-237.4-409.8l-149.4-3.8c-126.4-3.8-168.5-13.4-252.8-61.3c-109.2-59.4-197.2-155.1-243.2-266.2l-28.7-68.9h-208.7h-208.7L1582.4,204c-86.2,176.2-245.1,277.7-453.8,293c-107.2,7.7-143.6,1.9-229.8-38.3c-137.9-63.2-208.7-126.4-271.9-241.3C479.4-54.5,592.4-397.3,877.7-535.2c126.4-61.3,323.6-59.3,450,0c111.1,55.5,254.7,210.6,283.4,310.2l23,74.7h203h203l36.4-90c49.8-118.7,149.4-227.9,268.1-289.1c80.4-40.2,124.5-49.8,245.1-49.8l149.4-1.9l227.9-398.3l229.8-398.3l-65.1-99.6C3009-1661.1,3005.1-1887,3120-2067l51.7-84.2l-97.7-162.8l-97.7-162.8h-162.8c-122.5,0-181.9-9.6-248.9-40.2c-116.8-55.5-222.1-164.7-277.7-289.1l-46-103.4l-185.7,5.7l-183.8,5.7l-26.8,78.5c-84.3,252.8-392.5,404-660.6,325.5C956.2-2559.1,805-2767.9,805-3013c0-409.8,415.5-666.4,781.3-480.6c107.2,55.5,222.1,178.1,252.8,271.9l23,65.1h199.1h199.1l28.7-68.9c80.4-193.4,266.2-317.9,484.5-325.5l124.5-5.8l70.8-130.2l72.8-128.3l-65.1-84.2c-268.1-352.3-55.5-846.4,383-878.9c220.2-17.2,442.3,113,534.2,316c57.4,124.5,55.5,325.5-1.9,446.2c-95.7,199.2-270,310.2-490.2,315.9l-132.1,1.9l-70.9,128.3l-70.8,128.3l57.4,61.3c176.2,185.8,185.7,492.1,24.9,712.3c-24.9,34.5-19.1,51.7,70.8,204.9l99.6,166.6l67-13.4c262.3-53.6,530.4,80.4,626.2,312.1l34.5,86.2h490.2h490.2l21.1-72.8c53.6-180,270-331.3,488.3-338.9l118.7-3.8l90-160.9c49.8-88.1,91.9-170.4,91.9-181.9c0-9.6-24.9-53.6-55.5-95.7c-287.2-396.4,63.2-949.8,540-850.2c199.2,40.2,363.8,193.4,417.4,388.7l19.2,72.8l203-5.7l203-5.7l28.7-91.9c38.3-118.7,168.5-264.3,285.3-321.7c128.3-61.3,325.5-61.3,450-1.9c409.8,199.2,423.2,777.5,21.1,980.4c-137.9,68.9-317.9,74.7-450,15.3c-134-63.2-210.6-128.3-266.2-233.6l-46-88.1h-224h-222.1l-49.8,84.3c-109.1,185.7-302.5,291-507.4,275.7l-111.1-7.7l-42.1,76.6c-23,44.1-65.1,118.7-90,166.6l-49.8,88.1l76.6,101.5c90,118.7,118.7,204.9,118.7,356.2c0,124.5-49.8,254.7-126.4,335.1l-45.9,49.8l229.8,400.2l229.8,400.2l149.4,1.9c245.1,1.9,415.5,109.2,515.1,327.5l45.9,101.5h199.1h197.2l23-65.1c78.5-237.4,365.7-411.7,599.3-360l90,17.2L8407-832c84.3-153.2,153.2-281.5,153.2-287.2c0-5.7-34.5-49.8-76.6-99.6c-300.6-340.9-47.9-884.7,411.7-884.7c467.2,0,714.2,549.6,402.1,896.1c-101.5,113-239.4,178.1-390.6,185.8l-103.4,3.8l-162.8,291l-162.8,289.2l70.8,136c57.5,114.9,68.9,155.1,68.9,254.7c-1.9,134-32.5,233.6-101.5,323.6l-47.9,61.3l166.6,300.6l164.7,298.7L8924,945c457.7,26.8,677.9,553.4,373.4,892.3c-118.7,130.2-231.7,183.8-402.1,183.8c-170.4,0-283.4-53.6-402.1-183.8c-187.7-210.6-183.8-509.3,9.6-729.6l61.3-70.9L8414.6,765l-151.3-270l-172.3-1.9c-137.9-1.9-187.7-11.5-248.9-44c-99.6-51.7-227.9-189.6-260.4-279.6l-24.9-70.8h-212.5h-210.6l-46,97.7c-93.8,195.3-296.8,314-518.9,300.6l-114.9-5.7L6216.3,901l-237.4,409.8l63.2,88.1c86.2,122.6,111.1,214.5,101.5,363.8c-9.6,114.9-44,212.5-113,310.2c-17.2,23,0,63.2,82.4,201.1c67,109.1,113,168.5,132.1,162.8c15.3-3.8,78.5-5.8,141.7-5.8c404-1.9,664.5,423.2,480.6,785.1c-195.3,384.9-746.8,390.6-955.5,9.6c-97.7-183.8-84.3-415.5,38.3-576.4l45.9-61.3l-95.7-166.6l-93.8-166.6l-180-1.9c-145.5,0-191.5-7.7-254.7-42.1c-105.3-55.5-210.6-170.4-258.5-277.7l-40.2-91.9h-476.8h-476.8l-49.8,105.3c-93.8,195.3-285.3,316-505.5,316H3457l-97.7,176.2l-97.7,178.1l61.3,86.2c157,220.2,147.5,495.9-24.9,691.3l-57.4,67l145.5,252.8c136,233.6,151.3,252.8,195.3,243.2c237.4-49.8,386.8-17.2,534.2,116.8c241.3,216.4,241.3,576.4,1.9,800.4C3987.5,4996.9,3778.7,5050.5,3619.8,5002.6z M5109.6,1519.5c32.5-105.3,141.7-224,266.2-285.3c90-44,134-51.7,247-51.7l136,1.9l233.6-407.9l233.6-407.9l-67-95.7c-139.8-204.9-128.3-492.1,30.6-664.5c36.4-42.1,36.4-42.1-199.2-448.1l-235.5-405.9l-153.2-3.8c-231.7-5.7-388.7-107.2-482.5-310.2l-44-99.6h-478.7h-478.7l-49.8,103.4c-95.7,203-296.8,321.7-528.5,312.1l-120.6-5.7L3202.4-876c-118.7,203-224,384.9-233.6,402.1c-13.4,24.9-3.8,49.8,38.3,103.4c32.6,40.2,70.9,116.8,86.2,168.5c53.6,180,30.6,312.1-78.5,474.9l-67,99.6l233.6,405.9l233.6,406h145.5c109.2-1.9,168.5,7.7,235.5,38.3c111.1,51.7,231.7,172.3,277.6,283.4l34.5,86.2h490.2h490.2L5109.6,1519.5z"/></g></g>
</svg>
